<svg width="10" height="10" viewBox="0 0 10 10" fill="none" xmlns="http://www.w3.org/2000/svg">
<g clip-path="url(#clip0_5032_145197)">
<path d="M6.50181 3.6298C6.28321 2.00195 5.68844 0.833496 4.99713 0.833496C4.36796 0.833496 3.82257 1.79889 3.56569 3.1976C4.05782 3.20592 4.54495 3.30579 4.97938 3.50497C4.98826 3.50885 4.99214 3.51718 4.99269 3.52605C4.99269 3.53826 4.98493 3.55102 4.9705 3.55102C4.69586 3.5599 4.42123 3.57266 4.14714 3.59152C3.93021 3.60706 3.71216 3.6287 3.49467 3.65644C3.25721 3.68695 3.02141 3.72523 2.78949 3.7735C2.69295 3.79237 2.59586 3.8129 2.49987 3.83509C1.48788 4.11638 0.83374 4.56246 0.83374 5.06125C0.83374 5.7115 1.94727 6.26965 3.51465 6.48992C3.74379 8.05452 4.32247 9.16583 4.99713 9.16583C5.61077 9.16583 6.14784 8.24649 6.4136 6.90326C5.86599 6.91325 5.31838 6.81116 4.83457 6.58923C4.81071 6.57813 4.78686 6.56759 4.76355 6.55594C4.74247 6.5454 4.74913 6.50989 4.77409 6.51045C5.04929 6.50878 5.32337 6.50323 5.59801 6.49214C5.89595 6.47882 6.19777 6.45441 6.49571 6.41668C6.65162 6.39671 6.80697 6.37396 6.9601 6.34622C7.40895 6.27132 7.85558 6.16424 8.27392 5.98392C8.42705 5.91734 8.57852 5.84188 8.71889 5.74978C9.00462 5.54283 9.16663 5.3087 9.16663 5.06125C9.16663 4.41321 8.06087 3.8534 6.50181 3.6298Z" fill="url(#paint0_linear_5032_145197)"/>
</g>
<defs>
<linearGradient id="paint0_linear_5032_145197" x1="9.16707" y1="0.833496" x2="3.75041" y2="7.0835" gradientUnits="userSpaceOnUse">
<stop stop-color="#0DCC5A"/>
<stop offset="1" stop-color="#009F1F"/>
</linearGradient>
<clipPath id="clip0_5032_145197">
<rect width="10" height="10" fill="white"/>
</clipPath>
</defs>
</svg>
