<svg width="91" height="30" viewBox="0 0 91 30" fill="none" xmlns="http://www.w3.org/2000/svg">
<path d="M2.34961 9.26799L3.13544 11.8043C8.91974 11.2781 11.154 8.46269 11.154 8.46269C11.154 8.46269 13.3882 11.2781 19.1725 11.8043L19.9583 9.26799C19.9583 9.26799 14.1432 9.07142 12.7256 5.82804H19.4498V3H2.85808V5.82804H9.5823C8.16473 9.07142 2.34961 9.26799 2.34961 9.26799Z" fill="#141313"/>
<path d="M12.7952 17.4544V15.8412H22.3043V12.9785H0V15.8412H9.51233V17.4576C6.67354 17.9825 4.23757 19.8373 4.23757 22.4681C4.23757 25.3307 7.12711 27.6524 11.1522 27.6524C14.6253 27.6524 18.0668 25.7075 18.0668 22.4681C18.0668 19.818 15.6308 17.9761 12.792 17.4544H12.7952ZM11.1553 24.9476C9.23955 24.9476 7.57751 23.9848 7.57751 22.4778C7.57751 20.9708 9.21735 20.008 11.1553 20.008C13.0933 20.008 14.7332 20.9708 14.7332 22.4778C14.7332 23.9848 13.0933 24.9476 11.1553 24.9476Z" fill="#141313"/>
<path d="M33.3924 14.1533H30.1595V21.4136H21.7178V24.1316H44.0221V21.4136H33.3924V14.1533Z" fill="#141313"/>
<path d="M37.5245 17.6585L40.7369 17.6743C40.7369 17.6743 41.7203 14.3688 41.6734 5.98069C41.6703 5.30636 41.1271 4.76123 40.4591 4.76123H24.6533V7.56252H38.5579C38.5579 7.56252 38.7795 12.976 37.5214 17.6585H37.5245Z" fill="#141313"/>
<path d="M63.7671 3H60.5659V16.8499C60.5659 16.8499 60.02 17.7912 57.8207 17.7912H48.9864V4.46422H45.7852V18.1493C45.7852 19.5089 46.8615 20.6087 48.1923 20.6087H58.4101C59.9362 20.6087 60.5659 19.9305 60.5659 19.9305V26.4783H63.7671V14.1813L66.9156 14.175V10.993H63.7671V3Z" fill="#141313"/>
<path d="M87.1246 10.9434V3H83.7994V17.3114C83.7994 17.3114 83.2323 18.2528 80.9477 18.2528H72.003V13.7708H80.1003V4.43272H68.8002V7.24428H76.775V10.956H68.6777V18.6078C68.6777 19.9676 69.7958 21.0675 71.1781 21.0675H81.56C83.1453 21.0675 83.7994 20.3892 83.7994 20.3892V26.4783H87.1246V14.1321L90.3951 14.1258V10.9434H87.1246Z" fill="#141313"/>
</svg>
